<svg xmlns="http://www.w3.org/2000/svg" xmlns:v="https://svgstorm.com"
viewBox = "0 0 512 512"
width="512"
height="512">
<g fill="None" fill-opacity="0.0" stroke="#000000" stroke-opacity="0.03" stroke-width="0.3"><path d="
M 0.00 82.00 
C 0.50 82.00 1.00 82.00 1.00 82.00
C 1.50 57.11 9.87 41.47 27.25 24.25 C 44.62 7.02 59.12 2.63 85.00 0.00
L 0.00 0.00
L 0.00 82.00 Z"/>
</g>
<g fill="None" fill-opacity="0.0" stroke="#000000" stroke-opacity="1.00" stroke-width="0.3"><path d="
M 1.00 82.00 
C 0.94 84.99 0.91 88.01 1.00 91.00
C 1.35 102.58 3.86 110.48 7.19 119.25 C 10.52 128.02 16.04 133.85 21.71 142.30 C 27.38 150.75 32.78 158.32 40.23 166.77 C 47.68 175.22 57.47 183.94 69.69 189.31 C 81.91 194.67 99.52 200.70 114.00 199.00 C 128.48 197.30 147.17 192.24 160.68 197.32 C 174.19 202.40 177.43 220.37 193.07 218.93 C 208.72 217.48 210.85 234.54 221.00 244.00
C 209.88 254.57 198.09 264.25 184.75 271.75 C 171.42 279.26 158.54 287.43 146.75 297.75 C 134.97 308.08 125.34 318.43 115.75 330.75 C 106.16 343.06 96.61 355.06 88.70 368.70 C 80.78 382.34 72.80 396.90 68.22 412.22 C 63.65 427.55 60.71 453.20 65.93 468.07 C 71.15 482.95 75.04 500.84 89.75 509.25 C 104.46 517.65 112.99 490.23 121.77 480.77 C 130.55 471.31 139.61 454.56 148.30 443.30 C 157.00 432.05 166.94 417.67 175.75 405.75 C 184.57 393.84 193.06 380.25 202.25 368.25 C 211.45 356.26 219.55 342.86 228.77 330.77 C 238.00 318.68 246.44 304.15 257.00 294.00
C 264.82 306.63 274.23 318.86 282.77 331.23 C 291.31 343.60 301.05 356.06 309.75 368.25 C 318.45 380.44 327.25 394.05 336.25 405.75 C 345.26 417.44 353.94 432.21 362.77 443.23 C 371.60 454.25 381.13 470.86 389.75 480.25 C 398.38 489.64 406.99 517.28 421.25 509.25 C 435.50 501.21 440.51 484.50 445.78 469.78 C 451.05 455.05 447.68 427.89 443.07 412.93 C 438.46 397.96 431.54 382.05 423.23 368.77 C 414.92 355.49 406.27 343.48 396.75 331.25 C 387.22 319.02 377.27 308.62 365.75 298.25 C 354.23 287.87 341.07 279.76 327.92 272.08 C 314.77 264.39 302.69 255.02 291.00 245.00
C 295.84 235.55 304.16 227.45 309.00 218.00
C 331.55 227.17 340.16 194.75 360.00 195.00 C 379.85 195.25 407.35 201.05 426.22 195.22 C 445.09 189.39 461.21 179.58 473.10 166.10 C 484.99 152.61 489.13 142.89 497.80 130.75 C 506.47 118.61 509.24 109.09 511.00 93.00
C 511.16 87.73 511.30 82.26 511.00 77.00
C 508.86 39.59 473.09 2.14 435.00 1.00
C 429.38 0.83 423.62 0.79 418.00 1.00
C 405.51 1.48 399.12 3.92 390.25 7.39 C 381.37 10.87 375.79 17.00 366.75 24.75 C 357.71 32.50 354.73 44.08 343.00 46.00
C 336.77 40.53 326.76 36.63 315.75 40.80 C 304.74 44.97 300.40 55.88 300.98 67.02 C 301.56 78.17 311.41 82.10 315.00 94.00
C 308.37 102.40 299.36 115.72 292.87 124.92 C 286.38 134.12 285.56 134.21 280.30 141.30 C 275.03 148.38 273.13 153.67 268.81 159.25 C 264.48 164.83 260.78 174.28 265.98 183.02 C 271.17 191.77 260.25 196.61 257.00 205.00
C 246.55 198.16 242.26 188.89 246.93 177.93 C 251.59 166.96 242.40 158.83 238.74 152.25 C 235.07 145.67 227.54 139.43 224.61 132.25 C 221.68 125.06 211.76 119.89 209.30 112.70 C 206.84 105.51 195.71 99.51 197.00 91.00 C 198.30 82.48 210.85 77.83 211.13 69.08 C 211.41 60.34 209.41 52.21 202.75 46.25 C 196.10 40.28 186.75 36.43 179.08 40.13 C 171.41 43.84 161.72 48.28 156.30 38.70 C 150.88 29.12 146.72 25.97 139.08 18.91 C 131.44 11.86 126.02 10.19 118.25 6.41 C 110.47 2.63 103.35 2.50 94.00 0.00
L 85.00 0.00
C 59.12 2.63 44.62 7.02 27.25 24.25 C 9.87 41.47 1.50 57.11 1.00 82.00
M 94.00 17.00 
C 105.21 18.35 115.51 23.51 125.25 29.75 C 134.98 36.00 138.37 44.47 146.25 52.75 C 154.14 61.03 166.70 67.21 179.08 59.08 C 191.45 50.94 198.06 66.65 186.75 74.75 C 175.45 82.86 179.46 99.11 185.30 107.70 C 191.15 116.28 197.13 124.94 203.77 133.23 C 210.41 141.52 213.96 151.21 222.25 158.75 C 230.54 166.30 232.78 181.23 220.75 184.75 C 208.73 188.28 205.31 202.46 193.98 201.98 C 182.64 201.49 179.88 185.68 168.30 182.70 C 156.73 179.71 143.15 176.25 130.98 179.98 C 118.80 183.71 101.46 182.85 89.99 180.01 C 78.52 177.17 70.16 171.62 61.25 164.75 C 52.33 157.88 47.54 149.55 41.23 140.77 C 34.92 131.99 28.14 123.83 23.23 113.77 C 18.31 103.71 16.41 86.63 18.00 75.00 C 19.59 63.37 25.16 53.10 31.77 43.77 C 38.38 34.44 45.84 29.05 56.08 24.08 C 66.31 19.10 81.81 15.53 94.00 17.00
M 440.00 19.00 
C 465.02 23.40 481.28 39.98 490.93 64.07 C 500.57 88.17 488.57 117.69 473.23 137.23 C 457.89 156.77 444.54 174.62 419.00 180.00
C 408.00 182.32 394.75 182.84 383.93 180.07 C 373.10 177.31 358.74 176.72 348.78 180.78 C 338.81 184.83 331.85 187.27 325.75 196.75 C 319.64 206.23 306.46 198.09 300.92 192.08 C 295.37 186.07 280.33 182.36 281.01 172.99 C 281.68 163.62 292.78 156.99 296.75 148.75 C 300.73 140.52 308.96 133.61 313.30 125.30 C 317.64 116.99 326.06 111.50 329.30 102.30 C 332.55 93.11 332.82 79.29 322.25 72.75 C 311.68 66.21 321.89 51.06 331.69 58.31 C 341.50 65.55 354.11 62.62 362.23 56.23 C 370.35 49.84 371.35 41.13 379.75 34.75 C 388.15 28.38 394.66 23.65 405.07 20.07 C 415.49 16.50 429.08 17.08 440.00 19.00
M 238.00 226.00 
C 236.20 228.08 234.50 230.72 232.00 232.00
C 227.02 224.08 221.38 216.66 216.00 209.00
C 218.09 207.68 219.60 205.71 222.00 205.00
C 224.55 203.10 226.94 200.46 230.00 199.00
C 235.02 205.33 239.40 212.38 245.00 218.00
C 243.03 220.94 239.88 223.32 238.00 226.00
M 278.00 234.00 
C 274.22 229.71 270.04 223.99 264.00 223.00
C 268.19 214.35 276.82 207.65 281.00 199.00
C 287.48 202.64 298.20 207.79 291.70 214.70 C 285.19 221.61 283.68 226.99 278.00 234.00
M 257.00 238.00 
C 267.33 239.37 265.04 256.97 254.00 255.00 C 242.96 253.03 246.29 236.57 257.00 238.00
M 81.00 451.00 
C 76.81 452.86 79.82 443.90 80.00 442.00
C 80.00 398.72 111.87 363.70 136.77 330.77 C 161.67 297.84 203.63 285.09 232.00 257.00
C 234.95 264.71 242.43 270.07 250.00 272.00
C 199.24 345.26 146.03 416.94 95.00 490.00
C 84.53 482.77 84.30 472.36 92.25 464.25 C 100.20 456.14 102.93 446.61 110.30 438.30 C 117.68 429.99 121.74 421.48 128.77 412.77 C 135.80 404.06 139.01 396.84 146.77 387.77 C 154.53 378.70 155.30 371.84 165.25 362.25 C 175.20 352.66 162.84 337.68 153.75 348.75 C 144.66 359.82 143.02 364.02 135.75 373.75 C 128.47 383.47 124.06 390.23 117.25 399.25 C 110.44 408.26 105.79 416.46 99.23 425.23 C 92.67 434.00 86.86 441.92 81.00 451.00
M 413.00 426.00 
C 407.16 416.95 401.71 410.45 395.70 401.30 C 389.68 392.15 383.74 386.28 377.75 376.25 C 371.75 366.23 365.94 363.15 359.75 351.25 C 353.55 339.35 336.95 348.25 344.75 359.25 C 352.56 370.24 355.29 375.26 362.30 384.70 C 369.32 394.13 373.88 400.84 380.30 409.70 C 386.72 418.56 391.92 426.23 398.25 434.75 C 404.59 443.26 409.74 451.58 416.00 460.00
C 419.41 464.59 423.37 469.62 427.00 474.00
C 424.49 479.66 421.35 484.86 418.00 490.00
C 413.74 487.40 412.27 482.48 409.00 479.00
C 403.52 471.01 397.87 463.66 392.25 455.75 C 386.62 447.84 381.08 439.63 375.25 431.75 C 369.42 423.88 364.09 415.70 358.23 407.77 C 352.37 399.84 346.95 391.89 341.08 383.92 C 335.21 375.94 329.88 368.01 324.08 359.92 C 318.28 351.83 312.87 344.41 306.75 336.25 C 300.63 328.09 296.79 320.47 289.75 312.25 C 282.70 304.03 281.33 296.87 272.75 288.25 C 264.16 279.64 271.56 272.40 278.00 264.00
C 278.95 262.76 279.49 260.13 281.00 259.00
C 312.29 285.92 351.56 300.05 377.75 334.25 C 403.94 368.45 434.70 406.97 431.00 452.00
C 425.88 442.76 418.85 434.78 413.00 426.00 Z"/>
</g>
<g fill="None" fill-opacity="0.0" stroke="#000000" stroke-opacity="0.01" stroke-width="0.3"><path d="
M 418.00 1.00 
C 417.98 1.00 418.00 0.00 418.00 0.00
L 94.00 0.00
C 103.35 2.50 110.47 2.63 118.25 6.41 C 126.02 10.19 131.44 11.86 139.08 18.91 C 146.72 25.97 150.88 29.12 156.30 38.70 C 161.72 48.28 171.41 43.84 179.08 40.13 C 186.75 36.43 196.10 40.28 202.75 46.25 C 209.41 52.21 211.41 60.34 211.13 69.08 C 210.85 77.83 198.30 82.48 197.00 91.00 C 195.71 99.51 206.84 105.51 209.30 112.70 C 211.76 119.89 221.68 125.06 224.61 132.25 C 227.54 139.43 235.07 145.67 238.74 152.25 C 242.40 158.83 251.59 166.96 246.93 177.93 C 242.26 188.89 246.55 198.16 257.00 205.00
C 260.25 196.61 271.17 191.77 265.98 183.02 C 260.78 174.28 264.48 164.83 268.81 159.25 C 273.13 153.67 275.03 148.38 280.30 141.30 C 285.56 134.21 286.38 134.12 292.87 124.92 C 299.36 115.72 308.37 102.40 315.00 94.00
C 311.41 82.10 301.56 78.17 300.98 67.02 C 300.40 55.88 304.74 44.97 315.75 40.80 C 326.76 36.63 336.77 40.53 343.00 46.00
C 354.73 44.08 357.71 32.50 366.75 24.75 C 375.79 17.00 381.37 10.87 390.25 7.39 C 399.12 3.92 405.51 1.48 418.00 1.00 Z"/>
</g>
<g fill="None" fill-opacity="0.0" stroke="#000000" stroke-opacity="0.78" stroke-width="0.3"><path d="
M 418.00 1.00 
C 423.62 0.79 429.38 0.83 435.00 1.00
C 434.89 0.98 435.00 0.00 435.00 0.00
L 418.00 0.00
C 418.00 0.00 417.98 1.00 418.00 1.00 Z"/>
</g>
<g fill="None" fill-opacity="0.0" stroke="#000000" stroke-opacity="0.02" stroke-width="0.3"><path d="
M 435.00 1.00 
C 473.09 2.14 508.86 39.59 511.00 77.00
C 511.12 77.22 512.00 77.00 512.00 77.00
L 512.00 0.00
L 435.00 0.00
C 435.00 0.00 434.89 0.98 435.00 1.00 Z"/>
</g>
<g fill="None" fill-opacity="0.0" stroke="#EB4234" stroke-opacity="1.00" stroke-width="0.3"><path d="
M 94.00 17.00 
C 81.81 15.53 66.31 19.10 56.08 24.08 C 45.84 29.05 38.38 34.44 31.77 43.77 C 25.16 53.10 19.59 63.37 18.00 75.00 C 16.41 86.63 18.31 103.71 23.23 113.77 C 28.14 123.83 34.92 131.99 41.23 140.77 C 47.54 149.55 52.33 157.88 61.25 164.75 C 70.16 171.62 78.52 177.17 89.99 180.01 C 101.46 182.85 118.80 183.71 130.98 179.98 C 143.15 176.25 156.73 179.71 168.30 182.70 C 179.88 185.68 182.64 201.49 193.98 201.98 C 205.31 202.46 208.73 188.28 220.75 184.75 C 232.78 181.23 230.54 166.30 222.25 158.75 C 213.96 151.21 210.41 141.52 203.77 133.23 C 197.13 124.94 191.15 116.28 185.30 107.70 C 179.46 99.11 175.45 82.86 186.75 74.75 C 198.06 66.65 191.45 50.94 179.08 59.08 C 166.70 67.21 154.14 61.03 146.25 52.75 C 138.37 44.47 134.98 36.00 125.25 29.75 C 115.51 23.51 105.21 18.35 94.00 17.00
M 94.00 34.00 
C 122.38 38.61 131.22 66.57 148.75 85.25 C 166.29 103.93 179.90 139.16 153.75 154.75 C 127.61 170.34 92.37 169.43 71.75 150.25 C 51.14 131.07 34.22 109.31 34.00 81.00 C 33.78 52.69 67.09 29.63 94.00 34.00 Z"/>
</g>
<g fill="None" fill-opacity="0.0" stroke="#EC4234" stroke-opacity="1.00" stroke-width="0.3"><path d="
M 419.00 180.00 
C 434.16 172.83 442.69 157.64 452.77 144.77 C 462.85 131.90 474.10 115.83 475.00 100.00
C 469.80 120.99 455.01 132.47 440.75 149.75 C 426.50 167.04 395.70 166.23 374.99 162.01 C 354.28 157.78 333.94 135.99 343.98 114.98 C 354.01 93.96 366.55 83.88 377.77 64.77 C 388.99 45.66 408.09 31.91 430.67 34.33 C 453.25 36.75 470.64 52.34 476.00 74.00
C 474.61 55.07 459.66 27.68 440.00 19.00
C 429.08 17.08 415.49 16.50 405.07 20.07 C 394.66 23.65 388.15 28.38 379.75 34.75 C 371.35 41.13 370.35 49.84 362.23 56.23 C 354.11 62.62 341.50 65.55 331.69 58.31 C 321.89 51.06 311.68 66.21 322.25 72.75 C 332.82 79.29 332.55 93.11 329.30 102.30 C 326.06 111.50 317.64 116.99 313.30 125.30 C 308.96 133.61 300.73 140.52 296.75 148.75 C 292.78 156.99 281.68 163.62 281.01 172.99 C 280.33 182.36 295.37 186.07 300.92 192.08 C 306.46 198.09 319.64 206.23 325.75 196.75 C 331.85 187.27 338.81 184.83 348.78 180.78 C 358.74 176.72 373.10 177.31 383.93 180.07 C 394.75 182.84 408.00 182.32 419.00 180.00 Z"/>
</g>
<g fill="None" fill-opacity="0.0" stroke="#BD2727" stroke-opacity="1.00" stroke-width="0.3"><path d="
M 476.00 74.00 
C 478.10 82.47 477.04 91.77 475.00 100.00
C 474.10 115.83 462.85 131.90 452.77 144.77 C 442.69 157.64 434.16 172.83 419.00 180.00
C 444.54 174.62 457.89 156.77 473.23 137.23 C 488.57 117.69 500.57 88.17 490.93 64.07 C 481.28 39.98 465.02 23.40 440.00 19.00
C 459.66 27.68 474.61 55.07 476.00 74.00 Z"/>
</g>
<g fill="None" fill-opacity="0.0" stroke="#000000" stroke-opacity="1.00" stroke-width="0.3"><path d="
M 94.00 34.00 
C 67.09 29.63 33.78 52.69 34.00 81.00 C 34.22 109.31 51.14 131.07 71.75 150.25 C 92.37 169.43 127.61 170.34 153.75 154.75 C 179.90 139.16 166.29 103.93 148.75 85.25 C 131.22 66.57 122.38 38.61 94.00 34.00
M 79.00 51.00 
C 89.31 49.50 105.01 53.30 112.75 64.25 C 120.49 75.19 130.35 87.97 137.30 98.70 C 144.26 109.42 161.01 124.96 149.75 136.75 C 138.50 148.54 118.82 149.10 104.00 148.00 C 89.18 146.90 77.97 134.94 69.75 123.25 C 61.52 111.57 49.74 98.32 51.00 83.00 C 52.26 67.68 63.35 53.27 79.00 51.00 Z"/>
</g>
<g fill="None" fill-opacity="0.0" stroke="#000000" stroke-opacity="1.00" stroke-width="0.3"><path d="
M 475.00 100.00 
C 477.04 91.77 478.10 82.47 476.00 74.00
C 470.64 52.34 453.25 36.75 430.67 34.33 C 408.09 31.91 388.99 45.66 377.77 64.77 C 366.55 83.88 354.01 93.96 343.98 114.98 C 333.94 135.99 354.28 157.78 374.99 162.01 C 395.70 166.23 426.50 167.04 440.75 149.75 C 455.01 132.47 469.80 120.99 475.00 100.00
M 434.00 51.00 
C 448.09 53.52 458.60 67.66 460.33 81.67 C 462.06 95.68 452.25 109.58 443.75 120.75 C 435.25 131.91 427.27 144.29 411.99 146.99 C 396.72 149.70 380.33 149.25 365.92 140.08 C 351.51 130.91 362.47 113.84 370.77 102.77 C 379.07 91.70 386.78 82.31 394.75 69.75 C 402.73 57.20 417.57 48.06 434.00 51.00 Z"/>
</g>
<g fill="None" fill-opacity="0.0" stroke="#000000" stroke-opacity="0.02" stroke-width="0.3"><path d="
M 79.00 51.00 
C 63.35 53.27 52.26 67.68 51.00 83.00 C 49.74 98.32 61.52 111.57 69.75 123.25 C 77.97 134.94 89.18 146.90 104.00 148.00 C 118.82 149.10 138.50 148.54 149.75 136.75 C 161.01 124.96 144.26 109.42 137.30 98.70 C 130.35 87.97 120.49 75.19 112.75 64.25 C 105.01 53.30 89.31 49.50 79.00 51.00 Z"/>
</g>
<g fill="None" fill-opacity="0.0" stroke="#000000" stroke-opacity="0.02" stroke-width="0.3"><path d="
M 434.00 51.00 
C 417.57 48.06 402.73 57.20 394.75 69.75 C 386.78 82.31 379.07 91.70 370.77 102.77 C 362.47 113.84 351.51 130.91 365.92 140.08 C 380.33 149.25 396.72 149.70 411.99 146.99 C 427.27 144.29 435.25 131.91 443.75 120.75 C 452.25 109.58 462.06 95.68 460.33 81.67 C 458.60 67.66 448.09 53.52 434.00 51.00 Z"/>
</g>
<g fill="None" fill-opacity="0.0" stroke="#000000" stroke-opacity="0.45" stroke-width="0.3"><path d="
M 511.00 93.00 
C 511.02 92.89 512.00 93.00 512.00 93.00
L 512.00 77.00
C 512.00 77.00 511.12 77.22 511.00 77.00
C 511.30 82.26 511.16 87.73 511.00 93.00 Z"/>
</g>
<g fill="None" fill-opacity="0.0" stroke="#000000" stroke-opacity="0.48" stroke-width="0.3"><path d="
M 0.00 91.00 
C 0.50 91.00 1.00 91.00 1.00 91.00
C 0.91 88.01 0.94 84.99 1.00 82.00
C 1.00 82.00 0.50 82.00 0.00 82.00
L 0.00 91.00 Z"/>
</g>
<g fill="None" fill-opacity="0.0" stroke="#000000" stroke-opacity="0.01" stroke-width="0.3"><path d="
M 0.00 512.00 
L 512.00 512.00
L 512.00 93.00
C 512.00 93.00 511.02 92.89 511.00 93.00
C 509.24 109.09 506.47 118.61 497.80 130.75 C 489.13 142.89 484.99 152.61 473.10 166.10 C 461.21 179.58 445.09 189.39 426.22 195.22 C 407.35 201.05 379.85 195.25 360.00 195.00 C 340.16 194.75 331.55 227.17 309.00 218.00
C 304.16 227.45 295.84 235.55 291.00 245.00
C 302.69 255.02 314.77 264.39 327.92 272.08 C 341.07 279.76 354.23 287.87 365.75 298.25 C 377.27 308.62 387.22 319.02 396.75 331.25 C 406.27 343.48 414.92 355.49 423.23 368.77 C 431.54 382.05 438.46 397.96 443.07 412.93 C 447.68 427.89 451.05 455.05 445.78 469.78 C 440.51 484.50 435.50 501.21 421.25 509.25 C 406.99 517.28 398.38 489.64 389.75 480.25 C 381.13 470.86 371.60 454.25 362.77 443.23 C 353.94 432.21 345.26 417.44 336.25 405.75 C 327.25 394.05 318.45 380.44 309.75 368.25 C 301.05 356.06 291.31 343.60 282.77 331.23 C 274.23 318.86 264.82 306.63 257.00 294.00
C 246.44 304.15 238.00 318.68 228.77 330.77 C 219.55 342.86 211.45 356.26 202.25 368.25 C 193.06 380.25 184.57 393.84 175.75 405.75 C 166.94 417.67 157.00 432.05 148.30 443.30 C 139.61 454.56 130.55 471.31 121.77 480.77 C 112.99 490.23 104.46 517.65 89.75 509.25 C 75.04 500.84 71.15 482.95 65.93 468.07 C 60.71 453.20 63.65 427.55 68.22 412.22 C 72.80 396.90 80.78 382.34 88.70 368.70 C 96.61 355.06 106.16 343.06 115.75 330.75 C 125.34 318.43 134.97 308.08 146.75 297.75 C 158.54 287.43 171.42 279.26 184.75 271.75 C 198.09 264.25 209.88 254.57 221.00 244.00
C 210.85 234.54 208.72 217.48 193.07 218.93 C 177.43 220.37 174.19 202.40 160.68 197.32 C 147.17 192.24 128.48 197.30 114.00 199.00 C 99.52 200.70 81.91 194.67 69.69 189.31 C 57.47 183.94 47.68 175.22 40.23 166.77 C 32.78 158.32 27.38 150.75 21.71 142.30 C 16.04 133.85 10.52 128.02 7.19 119.25 C 3.86 110.48 1.35 102.58 1.00 91.00
C 1.00 91.00 0.50 91.00 0.00 91.00
L 0.00 512.00 Z"/>
</g>
<g fill="None" fill-opacity="0.0" stroke="#007D87" stroke-opacity="1.00" stroke-width="0.3"><path d="
M 222.00 205.00 
C 223.54 211.63 238.92 218.73 238.00 226.00
C 239.88 223.32 243.03 220.94 245.00 218.00
C 239.40 212.38 235.02 205.33 230.00 199.00
C 226.94 200.46 224.55 203.10 222.00 205.00 Z"/>
</g>
<g fill="None" fill-opacity="0.0" stroke="#007D87" stroke-opacity="1.00" stroke-width="0.3"><path d="
M 278.00 234.00 
C 283.68 226.99 285.19 221.61 291.70 214.70 C 298.20 207.79 287.48 202.64 281.00 199.00
C 276.82 207.65 268.19 214.35 264.00 223.00
C 270.04 223.99 274.22 229.71 278.00 234.00 Z"/>
</g>
<g fill="None" fill-opacity="0.0" stroke="#00B1C8" stroke-opacity="1.00" stroke-width="0.3"><path d="
M 238.00 226.00 
C 238.92 218.73 223.54 211.63 222.00 205.00
C 219.60 205.71 218.09 207.68 216.00 209.00
C 221.38 216.66 227.02 224.08 232.00 232.00
C 234.50 230.72 236.20 228.08 238.00 226.00 Z"/>
</g>
<g fill="None" fill-opacity="0.0" stroke="#1462B3" stroke-opacity="1.00" stroke-width="0.3"><path d="
M 257.00 238.00 
C 246.29 236.57 242.96 253.03 254.00 255.00 C 265.04 256.97 267.33 239.37 257.00 238.00 Z"/>
</g>
<g fill="None" fill-opacity="0.0" stroke="#007E88" stroke-opacity="1.00" stroke-width="0.3"><path d="
M 80.00 442.00 
C 80.00 444.84 79.21 448.98 81.00 451.00
C 86.86 441.92 92.67 434.00 99.23 425.23 C 105.79 416.46 110.44 408.26 117.25 399.25 C 124.06 390.23 128.47 383.47 135.75 373.75 C 143.02 364.02 144.66 359.82 153.75 348.75 C 162.84 337.68 175.20 352.66 165.25 362.25 C 155.30 371.84 154.53 378.70 146.77 387.77 C 139.01 396.84 135.80 404.06 128.77 412.77 C 121.74 421.48 117.68 429.99 110.30 438.30 C 102.93 446.61 100.20 456.14 92.25 464.25 C 84.30 472.36 84.53 482.77 95.00 490.00
C 146.03 416.94 199.24 345.26 250.00 272.00
C 242.43 270.07 234.95 264.71 232.00 257.00
C 203.63 285.09 161.67 297.84 136.77 330.77 C 111.87 363.70 80.00 398.72 80.00 442.00 Z"/>
</g>
<g fill="None" fill-opacity="0.0" stroke="#007E88" stroke-opacity="1.00" stroke-width="0.3"><path d="
M 278.00 264.00 
C 283.27 263.43 289.18 273.78 294.75 275.25 C 300.32 276.73 307.14 284.10 312.75 286.25 C 318.35 288.41 316.27 288.81 321.70 292.30 C 327.13 295.79 333.21 300.43 338.25 304.75 C 343.28 309.08 347.44 314.03 352.25 318.75 C 357.06 323.47 361.22 329.13 365.75 334.25 C 370.28 339.37 373.90 345.36 378.25 350.75 C 382.61 356.13 386.03 362.34 389.92 368.08 C 393.81 373.82 397.27 380.24 400.77 386.23 C 404.27 392.22 406.61 400.27 409.78 406.22 C 412.95 412.18 409.72 412.80 412.98 417.02 C 416.23 421.25 413.01 426.13 413.00 426.00
C 418.85 434.78 425.88 442.76 431.00 452.00
C 434.70 406.97 403.94 368.45 377.75 334.25 C 351.56 300.05 312.29 285.92 281.00 259.00
C 279.49 260.13 278.95 262.76 278.00 264.00 Z"/>
</g>
<g fill="None" fill-opacity="0.0" stroke="#00B5CD" stroke-opacity="1.00" stroke-width="0.3"><path d="
M 409.00 479.00 
C 412.61 480.70 416.74 463.86 416.00 460.00
C 409.74 451.58 404.59 443.26 398.25 434.75 C 391.92 426.23 386.72 418.56 380.30 409.70 C 373.88 400.84 369.32 394.13 362.30 384.70 C 355.29 375.26 352.56 370.24 344.75 359.25 C 336.95 348.25 353.55 339.35 359.75 351.25 C 365.94 363.15 371.75 366.23 377.75 376.25 C 383.74 386.28 389.68 392.15 395.70 401.30 C 401.71 410.45 407.16 416.95 413.00 426.00
C 413.01 426.13 416.23 421.25 412.98 417.02 C 409.72 412.80 412.95 412.18 409.78 406.22 C 406.61 400.27 404.27 392.22 400.77 386.23 C 397.27 380.24 393.81 373.82 389.92 368.08 C 386.03 362.34 382.61 356.13 378.25 350.75 C 373.90 345.36 370.28 339.37 365.75 334.25 C 361.22 329.13 357.06 323.47 352.25 318.75 C 347.44 314.03 343.28 309.08 338.25 304.75 C 333.21 300.43 327.13 295.79 321.70 292.30 C 316.27 288.81 318.35 288.41 312.75 286.25 C 307.14 284.10 300.32 276.73 294.75 275.25 C 289.18 273.78 283.27 263.43 278.00 264.00
C 271.56 272.40 264.16 279.64 272.75 288.25 C 281.33 296.87 282.70 304.03 289.75 312.25 C 296.79 320.47 300.63 328.09 306.75 336.25 C 312.87 344.41 318.28 351.83 324.08 359.92 C 329.88 368.01 335.21 375.94 341.08 383.92 C 346.95 391.89 352.37 399.84 358.23 407.77 C 364.09 415.70 369.42 423.88 375.25 431.75 C 381.08 439.63 386.62 447.84 392.25 455.75 C 397.87 463.66 403.52 471.01 409.00 479.00 Z"/>
</g>
<g fill="None" fill-opacity="0.0" stroke="#00383C" stroke-opacity="1.00" stroke-width="0.3"><path d="
M 81.00 451.00 
C 79.21 448.98 80.00 444.84 80.00 442.00
C 79.82 443.90 76.81 452.86 81.00 451.00 Z"/>
</g>
<g fill="None" fill-opacity="0.0" stroke="#007D87" stroke-opacity="1.00" stroke-width="0.3"><path d="
M 409.00 479.00 
C 412.27 482.48 413.74 487.40 418.00 490.00
C 421.35 484.86 424.49 479.66 427.00 474.00
C 423.37 469.62 419.41 464.59 416.00 460.00
C 416.74 463.86 412.61 480.70 409.00 479.00 Z"/>
</g>
<g fill="#000000" fill-opacity="0.03" stroke="None">
<path d="
M 0.00 82.00 
C 0.50 82.00 1.00 82.00 1.00 82.00
C 1.50 57.11 9.87 41.47 27.25 24.25 C 44.62 7.02 59.12 2.63 85.00 0.00
L 0.00 0.00
L 0.00 82.00 Z"/>
</g>
<g fill="#000000" fill-opacity="1.00" stroke="None">
<path d="
M 1.00 82.00 
C 0.94 84.99 0.91 88.01 1.00 91.00
C 1.35 102.58 3.86 110.48 7.19 119.25 C 10.52 128.02 16.04 133.85 21.71 142.30 C 27.38 150.75 32.78 158.32 40.23 166.77 C 47.68 175.22 57.47 183.94 69.69 189.31 C 81.91 194.67 99.52 200.70 114.00 199.00 C 128.48 197.30 147.17 192.24 160.68 197.32 C 174.19 202.40 177.43 220.37 193.07 218.93 C 208.72 217.48 210.85 234.54 221.00 244.00
C 209.88 254.57 198.09 264.25 184.75 271.75 C 171.42 279.26 158.54 287.43 146.75 297.75 C 134.97 308.08 125.34 318.43 115.75 330.75 C 106.16 343.06 96.61 355.06 88.70 368.70 C 80.78 382.34 72.80 396.90 68.22 412.22 C 63.65 427.55 60.71 453.20 65.93 468.07 C 71.15 482.95 75.04 500.84 89.75 509.25 C 104.46 517.65 112.99 490.23 121.77 480.77 C 130.55 471.31 139.61 454.56 148.30 443.30 C 157.00 432.05 166.94 417.67 175.75 405.75 C 184.57 393.84 193.06 380.25 202.25 368.25 C 211.45 356.26 219.55 342.86 228.77 330.77 C 238.00 318.68 246.44 304.15 257.00 294.00
C 264.82 306.63 274.23 318.86 282.77 331.23 C 291.31 343.60 301.05 356.06 309.75 368.25 C 318.45 380.44 327.25 394.05 336.25 405.75 C 345.26 417.44 353.94 432.21 362.77 443.23 C 371.60 454.25 381.13 470.86 389.75 480.25 C 398.38 489.64 406.99 517.28 421.25 509.25 C 435.50 501.21 440.51 484.50 445.78 469.78 C 451.05 455.05 447.68 427.89 443.07 412.93 C 438.46 397.96 431.54 382.05 423.23 368.77 C 414.92 355.49 406.27 343.48 396.75 331.25 C 387.22 319.02 377.27 308.62 365.75 298.25 C 354.23 287.87 341.07 279.76 327.92 272.08 C 314.77 264.39 302.69 255.02 291.00 245.00
C 295.84 235.55 304.16 227.45 309.00 218.00
C 331.55 227.17 340.16 194.75 360.00 195.00 C 379.85 195.25 407.35 201.05 426.22 195.22 C 445.09 189.39 461.21 179.58 473.10 166.10 C 484.99 152.61 489.13 142.89 497.80 130.75 C 506.47 118.61 509.24 109.09 511.00 93.00
C 511.16 87.73 511.30 82.26 511.00 77.00
C 508.86 39.59 473.09 2.14 435.00 1.00
C 429.38 0.83 423.62 0.79 418.00 1.00
C 405.51 1.48 399.12 3.92 390.25 7.39 C 381.37 10.87 375.79 17.00 366.75 24.75 C 357.71 32.50 354.73 44.08 343.00 46.00
C 336.77 40.53 326.76 36.63 315.75 40.80 C 304.74 44.97 300.40 55.88 300.98 67.02 C 301.56 78.17 311.41 82.10 315.00 94.00
C 308.37 102.40 299.36 115.72 292.87 124.92 C 286.38 134.12 285.56 134.21 280.30 141.30 C 275.03 148.38 273.13 153.67 268.81 159.25 C 264.48 164.83 260.78 174.28 265.98 183.02 C 271.17 191.77 260.25 196.61 257.00 205.00
C 246.55 198.16 242.26 188.89 246.93 177.93 C 251.59 166.96 242.40 158.83 238.74 152.25 C 235.07 145.67 227.54 139.43 224.61 132.25 C 221.68 125.06 211.76 119.89 209.30 112.70 C 206.84 105.51 195.71 99.51 197.00 91.00 C 198.30 82.48 210.85 77.83 211.13 69.08 C 211.41 60.34 209.41 52.21 202.75 46.25 C 196.10 40.28 186.75 36.43 179.08 40.13 C 171.41 43.84 161.72 48.28 156.30 38.70 C 150.88 29.12 146.72 25.97 139.08 18.91 C 131.44 11.86 126.02 10.19 118.25 6.41 C 110.47 2.63 103.35 2.50 94.00 0.00
L 85.00 0.00
C 59.12 2.63 44.62 7.02 27.25 24.25 C 9.87 41.47 1.50 57.11 1.00 82.00
M 94.00 17.00 
C 105.21 18.35 115.51 23.51 125.25 29.75 C 134.98 36.00 138.37 44.47 146.25 52.75 C 154.14 61.03 166.70 67.21 179.08 59.08 C 191.45 50.94 198.06 66.65 186.75 74.75 C 175.45 82.86 179.46 99.11 185.30 107.70 C 191.15 116.28 197.13 124.94 203.77 133.23 C 210.41 141.52 213.96 151.21 222.25 158.75 C 230.54 166.30 232.78 181.23 220.75 184.75 C 208.73 188.28 205.31 202.46 193.98 201.98 C 182.64 201.49 179.88 185.68 168.30 182.70 C 156.73 179.71 143.15 176.25 130.98 179.98 C 118.80 183.71 101.46 182.85 89.99 180.01 C 78.52 177.17 70.16 171.62 61.25 164.75 C 52.33 157.88 47.54 149.55 41.23 140.77 C 34.92 131.99 28.14 123.83 23.23 113.77 C 18.31 103.71 16.41 86.63 18.00 75.00 C 19.59 63.37 25.16 53.10 31.77 43.77 C 38.38 34.44 45.84 29.05 56.08 24.08 C 66.31 19.10 81.81 15.53 94.00 17.00
M 440.00 19.00 
C 465.02 23.40 481.28 39.98 490.93 64.07 C 500.57 88.17 488.57 117.69 473.23 137.23 C 457.89 156.77 444.54 174.62 419.00 180.00
C 408.00 182.32 394.75 182.84 383.93 180.07 C 373.10 177.31 358.74 176.72 348.78 180.78 C 338.81 184.83 331.85 187.27 325.75 196.75 C 319.64 206.23 306.46 198.09 300.92 192.08 C 295.37 186.07 280.33 182.36 281.01 172.99 C 281.68 163.62 292.78 156.99 296.75 148.75 C 300.73 140.52 308.96 133.61 313.30 125.30 C 317.64 116.99 326.06 111.50 329.30 102.30 C 332.55 93.11 332.82 79.29 322.25 72.75 C 311.68 66.21 321.89 51.06 331.69 58.31 C 341.50 65.55 354.11 62.62 362.23 56.23 C 370.35 49.84 371.35 41.13 379.75 34.75 C 388.15 28.38 394.66 23.65 405.07 20.07 C 415.49 16.50 429.08 17.08 440.00 19.00
M 238.00 226.00 
C 236.20 228.08 234.50 230.72 232.00 232.00
C 227.02 224.08 221.38 216.66 216.00 209.00
C 218.09 207.68 219.60 205.71 222.00 205.00
C 224.55 203.10 226.94 200.46 230.00 199.00
C 235.02 205.33 239.40 212.38 245.00 218.00
C 243.03 220.94 239.88 223.32 238.00 226.00
M 278.00 234.00 
C 274.22 229.71 270.04 223.99 264.00 223.00
C 268.19 214.35 276.82 207.65 281.00 199.00
C 287.48 202.64 298.20 207.79 291.70 214.70 C 285.19 221.61 283.68 226.99 278.00 234.00
M 257.00 238.00 
C 267.33 239.37 265.04 256.97 254.00 255.00 C 242.96 253.03 246.29 236.57 257.00 238.00
M 81.00 451.00 
C 76.81 452.86 79.82 443.90 80.00 442.00
C 80.00 398.72 111.87 363.70 136.77 330.77 C 161.67 297.84 203.63 285.09 232.00 257.00
C 234.95 264.71 242.43 270.07 250.00 272.00
C 199.24 345.26 146.03 416.94 95.00 490.00
C 84.53 482.77 84.30 472.36 92.25 464.25 C 100.20 456.14 102.93 446.61 110.30 438.30 C 117.68 429.99 121.74 421.48 128.77 412.77 C 135.80 404.06 139.01 396.84 146.77 387.77 C 154.53 378.70 155.30 371.84 165.25 362.25 C 175.20 352.66 162.84 337.68 153.75 348.75 C 144.66 359.82 143.02 364.02 135.75 373.75 C 128.47 383.47 124.06 390.23 117.25 399.25 C 110.44 408.26 105.79 416.46 99.23 425.23 C 92.67 434.00 86.86 441.92 81.00 451.00
M 413.00 426.00 
C 407.16 416.95 401.71 410.45 395.70 401.30 C 389.68 392.15 383.74 386.28 377.75 376.25 C 371.75 366.23 365.94 363.15 359.75 351.25 C 353.55 339.35 336.95 348.25 344.75 359.25 C 352.56 370.24 355.29 375.26 362.30 384.70 C 369.32 394.13 373.88 400.84 380.30 409.70 C 386.72 418.56 391.92 426.23 398.25 434.75 C 404.59 443.26 409.74 451.58 416.00 460.00
C 419.41 464.59 423.37 469.62 427.00 474.00
C 424.49 479.66 421.35 484.86 418.00 490.00
C 413.74 487.40 412.27 482.48 409.00 479.00
C 403.52 471.01 397.87 463.66 392.25 455.75 C 386.62 447.84 381.08 439.63 375.25 431.75 C 369.42 423.88 364.09 415.70 358.23 407.77 C 352.37 399.84 346.95 391.89 341.08 383.92 C 335.21 375.94 329.88 368.01 324.08 359.92 C 318.28 351.83 312.87 344.41 306.75 336.25 C 300.63 328.09 296.79 320.47 289.75 312.25 C 282.70 304.03 281.33 296.87 272.75 288.25 C 264.16 279.64 271.56 272.40 278.00 264.00
C 278.95 262.76 279.49 260.13 281.00 259.00
C 312.29 285.92 351.56 300.05 377.75 334.25 C 403.94 368.45 434.70 406.97 431.00 452.00
C 425.88 442.76 418.85 434.78 413.00 426.00 Z"/>
</g>
<g fill="#000000" fill-opacity="0.01" stroke="None">
<path d="
M 418.00 1.00 
C 417.98 1.00 418.00 0.00 418.00 0.00
L 94.00 0.00
C 103.35 2.50 110.47 2.63 118.25 6.41 C 126.02 10.19 131.44 11.86 139.08 18.91 C 146.72 25.97 150.88 29.12 156.30 38.70 C 161.72 48.28 171.41 43.84 179.08 40.13 C 186.75 36.43 196.10 40.28 202.75 46.25 C 209.41 52.21 211.41 60.34 211.13 69.08 C 210.85 77.83 198.30 82.48 197.00 91.00 C 195.71 99.51 206.84 105.51 209.30 112.70 C 211.76 119.89 221.68 125.06 224.61 132.25 C 227.54 139.43 235.07 145.67 238.74 152.25 C 242.40 158.83 251.59 166.96 246.93 177.93 C 242.26 188.89 246.55 198.16 257.00 205.00
C 260.25 196.61 271.17 191.77 265.98 183.02 C 260.78 174.28 264.48 164.83 268.81 159.25 C 273.13 153.67 275.03 148.38 280.30 141.30 C 285.56 134.21 286.38 134.12 292.87 124.92 C 299.36 115.72 308.37 102.40 315.00 94.00
C 311.41 82.10 301.56 78.17 300.98 67.02 C 300.40 55.88 304.74 44.97 315.75 40.80 C 326.76 36.63 336.77 40.53 343.00 46.00
C 354.73 44.08 357.71 32.50 366.75 24.75 C 375.79 17.00 381.37 10.87 390.25 7.39 C 399.12 3.92 405.51 1.48 418.00 1.00 Z"/>
</g>
<g fill="#000000" fill-opacity="0.78" stroke="None">
<path d="
M 418.00 1.00 
C 423.62 0.79 429.38 0.83 435.00 1.00
C 434.89 0.98 435.00 0.00 435.00 0.00
L 418.00 0.00
C 418.00 0.00 417.98 1.00 418.00 1.00 Z"/>
</g>
<g fill="#000000" fill-opacity="0.02" stroke="None">
<path d="
M 435.00 1.00 
C 473.09 2.14 508.86 39.59 511.00 77.00
C 511.12 77.22 512.00 77.00 512.00 77.00
L 512.00 0.00
L 435.00 0.00
C 435.00 0.00 434.89 0.98 435.00 1.00 Z"/>
</g>
<g fill="#EB4234" fill-opacity="1.00" stroke="None">
<path d="
M 94.00 17.00 
C 81.81 15.53 66.31 19.10 56.08 24.08 C 45.84 29.05 38.38 34.44 31.77 43.77 C 25.16 53.10 19.59 63.37 18.00 75.00 C 16.41 86.63 18.31 103.71 23.23 113.77 C 28.14 123.83 34.92 131.99 41.23 140.77 C 47.54 149.55 52.33 157.88 61.25 164.75 C 70.16 171.62 78.52 177.17 89.99 180.01 C 101.46 182.85 118.80 183.71 130.98 179.98 C 143.15 176.25 156.73 179.71 168.30 182.70 C 179.88 185.68 182.64 201.49 193.98 201.98 C 205.31 202.46 208.73 188.28 220.75 184.75 C 232.78 181.23 230.54 166.30 222.25 158.75 C 213.96 151.21 210.41 141.52 203.77 133.23 C 197.13 124.94 191.15 116.28 185.30 107.70 C 179.46 99.11 175.45 82.86 186.75 74.75 C 198.06 66.65 191.45 50.94 179.08 59.08 C 166.70 67.21 154.14 61.03 146.25 52.75 C 138.37 44.47 134.98 36.00 125.25 29.75 C 115.51 23.51 105.21 18.35 94.00 17.00
M 94.00 34.00 
C 122.38 38.61 131.22 66.57 148.75 85.25 C 166.29 103.93 179.90 139.16 153.75 154.75 C 127.61 170.34 92.37 169.43 71.75 150.25 C 51.14 131.07 34.22 109.31 34.00 81.00 C 33.78 52.69 67.09 29.63 94.00 34.00 Z"/>
</g>
<g fill="#EC4234" fill-opacity="1.00" stroke="None">
<path d="
M 419.00 180.00 
C 434.16 172.83 442.69 157.64 452.77 144.77 C 462.85 131.90 474.10 115.83 475.00 100.00
C 469.80 120.99 455.01 132.47 440.75 149.75 C 426.50 167.04 395.70 166.23 374.99 162.01 C 354.28 157.78 333.94 135.99 343.98 114.98 C 354.01 93.96 366.55 83.88 377.77 64.77 C 388.99 45.66 408.09 31.91 430.67 34.33 C 453.25 36.75 470.64 52.34 476.00 74.00
C 474.61 55.07 459.66 27.68 440.00 19.00
C 429.08 17.08 415.49 16.50 405.07 20.07 C 394.66 23.65 388.15 28.38 379.75 34.75 C 371.35 41.13 370.35 49.84 362.23 56.23 C 354.11 62.62 341.50 65.55 331.69 58.31 C 321.89 51.06 311.68 66.21 322.25 72.75 C 332.82 79.29 332.55 93.11 329.30 102.30 C 326.06 111.50 317.64 116.99 313.30 125.30 C 308.96 133.61 300.73 140.52 296.75 148.75 C 292.78 156.99 281.68 163.62 281.01 172.99 C 280.33 182.36 295.37 186.07 300.92 192.08 C 306.46 198.09 319.64 206.23 325.75 196.75 C 331.85 187.27 338.81 184.83 348.78 180.78 C 358.74 176.72 373.10 177.31 383.93 180.07 C 394.75 182.84 408.00 182.32 419.00 180.00 Z"/>
</g>
<g fill="#BD2727" fill-opacity="1.00" stroke="None">
<path d="
M 476.00 74.00 
C 478.10 82.47 477.04 91.77 475.00 100.00
C 474.10 115.83 462.85 131.90 452.77 144.77 C 442.69 157.64 434.16 172.83 419.00 180.00
C 444.54 174.62 457.89 156.77 473.23 137.23 C 488.57 117.69 500.57 88.17 490.93 64.07 C 481.28 39.98 465.02 23.40 440.00 19.00
C 459.66 27.68 474.61 55.07 476.00 74.00 Z"/>
</g>
<g fill="#000000" fill-opacity="1.00" stroke="None">
<path d="
M 94.00 34.00 
C 67.09 29.63 33.78 52.69 34.00 81.00 C 34.22 109.31 51.14 131.07 71.75 150.25 C 92.37 169.43 127.61 170.34 153.75 154.75 C 179.90 139.16 166.29 103.93 148.75 85.25 C 131.22 66.57 122.38 38.61 94.00 34.00
M 79.00 51.00 
C 89.31 49.50 105.01 53.30 112.75 64.25 C 120.49 75.19 130.35 87.97 137.30 98.70 C 144.26 109.42 161.01 124.96 149.75 136.75 C 138.50 148.54 118.82 149.10 104.00 148.00 C 89.18 146.90 77.97 134.94 69.75 123.25 C 61.52 111.57 49.74 98.32 51.00 83.00 C 52.26 67.68 63.35 53.27 79.00 51.00 Z"/>
</g>
<g fill="#000000" fill-opacity="1.00" stroke="None">
<path d="
M 475.00 100.00 
C 477.04 91.77 478.10 82.47 476.00 74.00
C 470.64 52.34 453.25 36.75 430.67 34.33 C 408.09 31.91 388.99 45.66 377.77 64.77 C 366.55 83.88 354.01 93.96 343.98 114.98 C 333.94 135.99 354.28 157.78 374.99 162.01 C 395.70 166.23 426.50 167.04 440.75 149.75 C 455.01 132.47 469.80 120.99 475.00 100.00
M 434.00 51.00 
C 448.09 53.52 458.60 67.66 460.33 81.67 C 462.06 95.68 452.25 109.58 443.75 120.75 C 435.25 131.91 427.27 144.29 411.99 146.99 C 396.72 149.70 380.33 149.25 365.92 140.08 C 351.51 130.91 362.47 113.84 370.77 102.77 C 379.07 91.70 386.78 82.31 394.75 69.75 C 402.73 57.20 417.57 48.06 434.00 51.00 Z"/>
</g>
<g fill="#000000" fill-opacity="0.02" stroke="None">
<path d="
M 79.00 51.00 
C 63.35 53.27 52.26 67.68 51.00 83.00 C 49.74 98.32 61.52 111.57 69.75 123.25 C 77.97 134.94 89.18 146.90 104.00 148.00 C 118.82 149.10 138.50 148.54 149.75 136.75 C 161.01 124.96 144.26 109.42 137.30 98.70 C 130.35 87.97 120.49 75.19 112.75 64.25 C 105.01 53.30 89.31 49.50 79.00 51.00 Z"/>
</g>
<g fill="#000000" fill-opacity="0.02" stroke="None">
<path d="
M 434.00 51.00 
C 417.57 48.06 402.73 57.20 394.75 69.75 C 386.78 82.31 379.07 91.70 370.77 102.77 C 362.47 113.84 351.51 130.91 365.92 140.08 C 380.33 149.25 396.72 149.70 411.99 146.99 C 427.27 144.29 435.25 131.91 443.75 120.75 C 452.25 109.58 462.06 95.68 460.33 81.67 C 458.60 67.66 448.09 53.52 434.00 51.00 Z"/>
</g>
<g fill="#000000" fill-opacity="0.45" stroke="None">
<path d="
M 511.00 93.00 
C 511.02 92.89 512.00 93.00 512.00 93.00
L 512.00 77.00
C 512.00 77.00 511.12 77.22 511.00 77.00
C 511.30 82.26 511.16 87.73 511.00 93.00 Z"/>
</g>
<g fill="#000000" fill-opacity="0.48" stroke="None">
<path d="
M 0.00 91.00 
C 0.50 91.00 1.00 91.00 1.00 91.00
C 0.91 88.01 0.94 84.99 1.00 82.00
C 1.00 82.00 0.50 82.00 0.00 82.00
L 0.00 91.00 Z"/>
</g>
<g fill="#000000" fill-opacity="0.01" stroke="None">
<path d="
M 0.00 512.00 
L 512.00 512.00
L 512.00 93.00
C 512.00 93.00 511.02 92.89 511.00 93.00
C 509.24 109.09 506.47 118.61 497.80 130.75 C 489.13 142.89 484.99 152.61 473.10 166.10 C 461.21 179.58 445.09 189.39 426.22 195.22 C 407.35 201.05 379.85 195.25 360.00 195.00 C 340.16 194.75 331.55 227.17 309.00 218.00
C 304.16 227.45 295.84 235.55 291.00 245.00
C 302.69 255.02 314.77 264.39 327.92 272.08 C 341.07 279.76 354.23 287.87 365.75 298.25 C 377.27 308.62 387.22 319.02 396.75 331.25 C 406.27 343.48 414.92 355.49 423.23 368.77 C 431.54 382.05 438.46 397.96 443.07 412.93 C 447.68 427.89 451.05 455.05 445.78 469.78 C 440.51 484.50 435.50 501.21 421.25 509.25 C 406.99 517.28 398.38 489.64 389.75 480.25 C 381.13 470.86 371.60 454.25 362.77 443.23 C 353.94 432.21 345.26 417.44 336.25 405.75 C 327.25 394.05 318.45 380.44 309.75 368.25 C 301.05 356.06 291.31 343.60 282.77 331.23 C 274.23 318.86 264.82 306.63 257.00 294.00
C 246.44 304.15 238.00 318.68 228.77 330.77 C 219.55 342.86 211.45 356.26 202.25 368.25 C 193.06 380.25 184.57 393.84 175.75 405.75 C 166.94 417.67 157.00 432.05 148.30 443.30 C 139.61 454.56 130.55 471.31 121.77 480.77 C 112.99 490.23 104.46 517.65 89.75 509.25 C 75.04 500.84 71.15 482.95 65.93 468.07 C 60.71 453.20 63.65 427.55 68.22 412.22 C 72.80 396.90 80.78 382.34 88.70 368.70 C 96.61 355.06 106.16 343.06 115.75 330.75 C 125.34 318.43 134.97 308.08 146.75 297.75 C 158.54 287.43 171.42 279.26 184.75 271.75 C 198.09 264.25 209.88 254.57 221.00 244.00
C 210.85 234.54 208.72 217.48 193.07 218.93 C 177.43 220.37 174.19 202.40 160.68 197.32 C 147.17 192.24 128.48 197.30 114.00 199.00 C 99.52 200.70 81.91 194.67 69.69 189.31 C 57.47 183.94 47.68 175.22 40.23 166.77 C 32.78 158.32 27.38 150.75 21.71 142.30 C 16.04 133.85 10.52 128.02 7.19 119.25 C 3.86 110.48 1.35 102.58 1.00 91.00
C 1.00 91.00 0.50 91.00 0.00 91.00
L 0.00 512.00 Z"/>
</g>
<g fill="#007D87" fill-opacity="1.00" stroke="None">
<path d="
M 222.00 205.00 
C 223.54 211.63 238.92 218.73 238.00 226.00
C 239.88 223.32 243.03 220.94 245.00 218.00
C 239.40 212.38 235.02 205.33 230.00 199.00
C 226.94 200.46 224.55 203.10 222.00 205.00 Z"/>
</g>
<g fill="#007D87" fill-opacity="1.00" stroke="None">
<path d="
M 278.00 234.00 
C 283.68 226.99 285.19 221.61 291.70 214.70 C 298.20 207.79 287.48 202.64 281.00 199.00
C 276.82 207.65 268.19 214.35 264.00 223.00
C 270.04 223.99 274.22 229.71 278.00 234.00 Z"/>
</g>
<g fill="#00B1C8" fill-opacity="1.00" stroke="None">
<path d="
M 238.00 226.00 
C 238.92 218.73 223.54 211.63 222.00 205.00
C 219.60 205.71 218.09 207.68 216.00 209.00
C 221.38 216.66 227.02 224.08 232.00 232.00
C 234.50 230.72 236.20 228.08 238.00 226.00 Z"/>
</g>
<g fill="#1462B3" fill-opacity="1.00" stroke="None">
<path d="
M 257.00 238.00 
C 246.29 236.57 242.96 253.03 254.00 255.00 C 265.04 256.97 267.33 239.37 257.00 238.00 Z"/>
</g>
<g fill="#007E88" fill-opacity="1.00" stroke="None">
<path d="
M 80.00 442.00 
C 80.00 444.84 79.21 448.98 81.00 451.00
C 86.86 441.92 92.67 434.00 99.23 425.23 C 105.79 416.46 110.44 408.26 117.25 399.25 C 124.06 390.23 128.47 383.47 135.75 373.75 C 143.02 364.02 144.66 359.82 153.75 348.75 C 162.84 337.68 175.20 352.66 165.25 362.25 C 155.30 371.84 154.53 378.70 146.77 387.77 C 139.01 396.84 135.80 404.06 128.77 412.77 C 121.74 421.48 117.68 429.99 110.30 438.30 C 102.93 446.61 100.20 456.14 92.25 464.25 C 84.30 472.36 84.53 482.77 95.00 490.00
C 146.03 416.94 199.24 345.26 250.00 272.00
C 242.43 270.07 234.95 264.71 232.00 257.00
C 203.63 285.09 161.67 297.84 136.77 330.77 C 111.87 363.70 80.00 398.72 80.00 442.00 Z"/>
</g>
<g fill="#007E88" fill-opacity="1.00" stroke="None">
<path d="
M 278.00 264.00 
C 283.27 263.43 289.18 273.78 294.75 275.25 C 300.32 276.73 307.14 284.10 312.75 286.25 C 318.35 288.41 316.27 288.81 321.70 292.30 C 327.13 295.79 333.21 300.43 338.25 304.75 C 343.28 309.08 347.44 314.03 352.25 318.75 C 357.06 323.47 361.22 329.13 365.75 334.25 C 370.28 339.37 373.90 345.36 378.25 350.75 C 382.61 356.13 386.03 362.34 389.92 368.08 C 393.81 373.82 397.27 380.24 400.77 386.23 C 404.27 392.22 406.61 400.27 409.78 406.22 C 412.95 412.18 409.72 412.80 412.98 417.02 C 416.23 421.25 413.01 426.13 413.00 426.00
C 418.85 434.78 425.88 442.76 431.00 452.00
C 434.70 406.97 403.94 368.45 377.75 334.25 C 351.56 300.05 312.29 285.92 281.00 259.00
C 279.49 260.13 278.95 262.76 278.00 264.00 Z"/>
</g>
<g fill="#00B5CD" fill-opacity="1.00" stroke="None">
<path d="
M 409.00 479.00 
C 412.61 480.70 416.74 463.86 416.00 460.00
C 409.74 451.58 404.59 443.26 398.25 434.75 C 391.92 426.23 386.72 418.56 380.30 409.70 C 373.88 400.84 369.32 394.13 362.30 384.70 C 355.29 375.26 352.56 370.24 344.75 359.25 C 336.95 348.25 353.55 339.35 359.75 351.25 C 365.94 363.15 371.75 366.23 377.75 376.25 C 383.74 386.28 389.68 392.15 395.70 401.30 C 401.71 410.45 407.16 416.95 413.00 426.00
C 413.01 426.13 416.23 421.25 412.98 417.02 C 409.72 412.80 412.95 412.18 409.78 406.22 C 406.61 400.27 404.27 392.22 400.77 386.23 C 397.27 380.24 393.81 373.82 389.92 368.08 C 386.03 362.34 382.61 356.13 378.25 350.75 C 373.90 345.36 370.28 339.37 365.75 334.25 C 361.22 329.13 357.06 323.47 352.25 318.75 C 347.44 314.03 343.28 309.08 338.25 304.75 C 333.21 300.43 327.13 295.79 321.70 292.30 C 316.27 288.81 318.35 288.41 312.75 286.25 C 307.14 284.10 300.32 276.73 294.75 275.25 C 289.18 273.78 283.27 263.43 278.00 264.00
C 271.56 272.40 264.16 279.64 272.75 288.25 C 281.33 296.87 282.70 304.03 289.75 312.25 C 296.79 320.47 300.63 328.09 306.75 336.25 C 312.87 344.41 318.28 351.83 324.08 359.92 C 329.88 368.01 335.21 375.94 341.08 383.92 C 346.95 391.89 352.37 399.84 358.23 407.77 C 364.09 415.70 369.42 423.88 375.25 431.75 C 381.08 439.63 386.62 447.84 392.25 455.75 C 397.87 463.66 403.52 471.01 409.00 479.00 Z"/>
</g>
<g fill="#00383C" fill-opacity="1.00" stroke="None">
<path d="
M 81.00 451.00 
C 79.21 448.98 80.00 444.84 80.00 442.00
C 79.82 443.90 76.81 452.86 81.00 451.00 Z"/>
</g>
<g fill="#007D87" fill-opacity="1.00" stroke="None">
<path d="
M 409.00 479.00 
C 412.27 482.48 413.74 487.40 418.00 490.00
C 421.35 484.86 424.49 479.66 427.00 474.00
C 423.37 469.62 419.41 464.59 416.00 460.00
C 416.74 463.86 412.61 480.70 409.00 479.00 Z"/>
</g>
</svg>